/* XPM */
static char *bitcoin64[] = {
/* columns rows colors chars-per-pixel */
"64 64 160 2 ",
"   c #000100",
".  c #050902",
"X  c #080E03",
"o  c #0D0E0B",
"O  c #0C1404",
"+  c #0F1905",
"@  c #0F1509",
"#  c #111C06",
"$  c #121B09",
"%  c #1B1E18",
"&  c #132007",
"*  c #16230A",
"=  c #1B2A0B",
"-  c #19260B",
";  c #1F330C",
":  c #1A2014",
">  c #23390D",
",  c #21360C",
"<  c #283D13",
"1  c #243118",
"2  c #2D3C1F",
"3  c #232323",
"4  c #242820",
"5  c #282C24",
"6  c #2C3028",
"7  c #30342C",
"8  c #353535",
"9  c #3A3A3A",
"0  c #28420F",
"q  c #2B4313",
"w  c #2D4A11",
"e  c #2D411A",
"r  c #364F1E",
"t  c #395B17",
"y  c #3B5D19",
"u  c #39551E",
"i  c #3C6317",
"p  c #3C4F29",
"a  c #35412A",
"s  c #426D18",
"d  c #46731A",
"f  c #49771C",
"g  c #415D27",
"h  c #455733",
"j  c #517F25",
"k  c #537E28",
"l  c #4F6737",
"z  c #517033",
"x  c #597D35",
"c  c #434343",
"v  c #4B4B4B",
"b  c #515151",
"n  c #5A5A5A",
"m  c #576847",
"M  c #5A684C",
"N  c #5B7245",
"B  c #657C4D",
"V  c #637552",
"C  c #677C53",
"Z  c #656565",
"A  c #6F7B64",
"S  c #717A68",
"D  c #777E70",
"F  c #747474",
"G  c #4F811E",
"H  c #5A9125",
"J  c #5F8C34",
"K  c #699E34",
"L  c #7DBD3E",
"P  c #6B8E4A",
"I  c #638146",
"U  c #72974F",
"Y  c #75905B",
"T  c #7EAC52",
"R  c #798F63",
"E  c #7D9567",
"W  c #7D9269",
"Q  c #798271",
"!  c #80B74A",
"~  c #83AE59",
"^  c #84B059",
"/  c #8AB85D",
"(  c #839E69",
")  c #848C7C",
"_  c #809070",
"`  c #8D9E7C",
"'  c #87A668",
"]  c #8DAE6D",
"[  c #8AB164",
"{  c #90B769",
"}  c #90A37D",
"|  c #97B777",
" . c #89C64C",
".. c #A2C67F",
"X. c #A9DD76",
"o. c #ACE476",
"O. c #808080",
"+. c #8D8D8D",
"@. c #8E9687",
"#. c #959595",
"$. c #9C9C9C",
"%. c #99AD87",
"&. c #9CB386",
"*. c #9FA59A",
"=. c #9BA691",
"-. c #A5BC8E",
";. c #A5B497",
":. c #ACB99F",
">. c #A6A6A6",
",. c #A6ABA0",
"<. c #ADADAD",
"1. c #ABB2A5",
"2. c #B2B9AC",
"3. c #B5B5B5",
"4. c #BDBDBD",
"5. c #B6DD8F",
"6. c #ABC692",
"7. c #BCDB9E",
"8. c #B5D19A",
"9. c #B5EA82",
"0. c #B9ED86",
"q. c #BDE596",
"w. c #B5C0AA",
"e. c #BFD8A5",
"r. c #C2EF95",
"t. c #C5F09A",
"y. c #C1D7AC",
"u. c #C0E0A0",
"i. c #CBF2A4",
"p. c #CEF3AB",
"a. c #CEE5B8",
"s. c #CCE6B3",
"d. c #D4EBBE",
"f. c #D5F4B7",
"g. c #D6F5B9",
"h. c #C6C6C6",
"j. c #CECECE",
"k. c #CCD1C7",
"l. c #D1D8CA",
"z. c #D7D7D7",
"x. c #DFDFDF",
"c. c #DBEBCB",
"v. c #DCF6C3",
"b. c #DFF7C8",
"n. c #E3F8CE",
"m. c #E4ECDC",
"M. c #E3F5D1",
"N. c #E6F9D4",
"B. c #ECFADD",
"V. c #E5E5E5",
"C. c #E6E9E3",
"Z. c #EDEDED",
"A. c #EDF9E2",
"S. c #F0FBE6",
"D. c #F4FBED",
"F. c #F5F5F5",
"G. c #F6FCF0",
"H. c #F9FDF6",
"J. c #FFFFFF",
"K. c None",
/* pixels */
"K.K.K.K.K.K.K.K.K.K.K.K.K.K.K.K.K.K.K.K.K.K.K.K.K.K.K.3 v v v b v v v c 3 K.K.K.K.K.K.K.K.K.K.K.K.K.K.K.K.K.K.K.K.K.K.K.K.K.K.K.",
"K.K.K.K.K.K.K.K.K.K.K.K.K.K.K.K.K.K.K.K.K.K.K.c O.O.O.O.O.O.O.O.O.O.O.O.O.O.O.O.c K.K.K.K.K.K.K.K.K.K.K.K.K.K.K.K.K.K.K.K.K.K.K.",
"K.K.K.K.K.K.K.K.K.K.K.K.K.K.K.K.K.K.K.K.c O.O.O.O.O.O.O.O.O.O.O.O.O.O.O.O.O.O.O.O.O.O.c K.K.K.K.K.K.K.K.K.K.K.K.K.K.K.K.K.K.K.K.",
"K.K.K.K.K.K.K.K.K.K.K.K.K.K.K.K.K.K.Z O.D O.O.O.O.#.3.4.z.x.x.x.x.x.x.x.4.<.#.O.O.O.O.O.O.Z K.K.K.K.K.K.K.K.K.K.K.K.K.K.K.K.K.K.",
"K.K.K.K.K.K.K.K.K.K.K.K.K.K.K.K.n O.O.O.O.O.>.j.F.J.J.J.J.J.J.J.J.J.J.J.J.J.J.F.j.>.O.O.O.O.O.n K.K.K.K.K.K.K.K.K.K.K.K.K.K.K.K.",
"K.K.K.K.K.K.K.K.K.K.K.K.K.K.8 O.O.F O.#.h.H.J.J.J.J.J.J.J.J.J.J.J.J.J.J.J.J.J.J.J.J.F.h.#.O.O.O.O.8 K.K.K.K.K.K.K.K.K.K.K.K.K.K.",
"K.K.K.K.K.K.K.K.K.K.K.K.K.Z O.O.O.+.j.J.J.J.J.J.J.J.J.J.J.J.J.J.J.J.J.J.J.J.J.J.J.J.J.J.J.j.+.D O.O.Z K.K.K.K.K.K.K.K.K.K.K.K.K.",
"K.K.K.K.K.K.K.K.K.K.K.K.O.O.O.O.4.F.J.J.J.J.J.J.J.J.J.J.J.J.J.J.J.J.J.J.J.J.J.J.J.J.J.J.J.J.F.4.O.O.O.O.K.K.K.K.K.K.K.K.K.K.K.K.",
"K.K.K.K.K.K.K.K.K.K.3 O.O.O.#.V.J.J.J.J.J.J.J.J.J.J.J.J.J.J.J.J.J.J.J.J.J.J.J.J.J.J.J.J.J.J.J.J.V.#.O.O.O.3 K.K.K.K.K.K.K.K.K.K.",
"K.K.K.K.K.K.K.K.K.8 O.O.O.<.J.J.J.J.J.J.J.J.J.J.J.J.J.J.J.J.J.J.J.J.J.J.J.J.J.J.J.J.J.J.J.J.J.J.J.J.<.O.O.O.8 K.K.K.K.K.K.K.K.K.",
"K.K.K.K.K.K.K.K.3 O.O.D 3.J.J.J.J.J.J.J.J.J.J.J.J.J.J.J.J.J.J.J.J.J.J.J.J.J.J.J.J.J.J.J.J.J.J.J.J.J.J.3.O.O.O.3 K.K.K.K.K.K.K.K.",
"K.K.K.K.K.K.K.K.O.O.O.j.J.J.J.J.J.J.J.J.J.J.J.J.J.J.J.J.J.J.J.J.J.J.J.J.J.J.J.J.J.J.J.J.J.J.J.J.J.J.J.J.j.O.O.O.K.K.K.K.K.K.K.K.",
"K.K.K.K.K.K.K.O.O.D h.J.J.J.J.J.J.J.J.J.J.J.J.J.J.J.J.J.J.J.J.J.J.J.J.J.J.J.J.J.J.J.J.J.J.J.J.J.J.J.J.J.J.h.D O.O.K.K.K.K.K.K.K.",
"K.K.K.K.K.K.Z O.O.3.J.J.J.J.J.J.J.J.J.J.J.J.J.J.J.J.J.J.J.J.J.J.J.J.J.J.J.J.J.J.J.J.J.J.J.J.J.J.J.J.J.J.J.J.3.O.O.Z K.K.K.K.K.K.",
"K.K.K.K.K.9 O.O.$.J.J.J.J.J.J.J.J.J.J.J.J.J.J.J.J.J.J.J.J.J.J.J.J.J.J.J.J.J.J.J.J.J.J.J.J.J.J.J.J.J.J.J.J.J.J.#.O.O.9 K.K.K.K.K.",
"K.K.K.K.K.O.O.O.Z.J.J.J.J.J.J.J.J.J.J.J.J.J.J.J.J.J.J.J.J.J.J.J.J.J.J.J.J.J.J.J.J.J.J.J.J.J.J.J.J.J.J.J.J.J.J.Z.+.O.O.K.K.K.K.K.",
"K.K.K.K.n O.O.j.J.J.J.J.J.J.J.J.J.J.J.J.J.J.J.J.J.J.J.J.J.J.J.J.J.J.J.J.J.J.J.J.J.J.J.J.J.J.J.J.J.J.J.J.J.J.J.J.j.D O.n K.K.K.K.",
"K.K.K.K.O.O.$.J.J.J.J.J.J.J.J.J.J.J.J.J.J.J.J.J.J.J.J.J.J.J.J.J.J.J.J.J.J.J.J.J.J.J.J.J.J.J.J.J.J.J.J.J.J.J.J.J.J.$.O.F K.K.K.K.",
"K.K.K.Z O.O.x.J.J.J.J.J.J.J.J.J.J.J.J.J.J.J.J.J.J.J.J.J.J.J.J.J.J.J.J.J.J.J.J.J.J.J.J.J.J.J.J.J.J.J.J.J.J.J.J.J.J.x.O.O.Z K.K.K.",
"K.K.K.O.O.>.J.J.J.J.J.J.J.J.J.J.J.J.J.J.J.J.J.J.J.J.J.J.J.J.J.J.J.J.J.J.J.J.J.J.J.J.J.J.J.J.J.J.J.J.J.J.J.J.J.J.J.J.>.O.O.K.K.K.",
"K.K.c O.O.x.J.J.J.J.J.J.J.J.J.J.J.J.J.J.J.J.J.J.J.J.J.J.J.J.J.J.J.J.J.J.J.J.J.J.J.J.J.J.J.J.J.J.J.J.J.J.J.J.J.J.J.J.x.O.O.c K.K.",
"K.K.O.O.+.J.J.J.J.J.J.J.J.J.J.J.J.J.J.J.J.J.J.J.J.J.J.J.J.J.J.J.J.J.J.J.J.J.J.J.J.J.J.J.J.J.J.J.J.J.J.J.J.J.J.J.J.J.J.+.O.O.K.K.",
"K.K.O.O.h.J.J.J.J.J.J.J.J.J.J.J.J.J.J.J.J.J.J.J.J.J.J.J.J.J.J.J.J.J.J.J.J.J.J.J.J.J.J.J.J.J.J.J.J.J.J.J.J.J.J.J.J.J.J.h.O.O.K.K.",
"K.c O.O.Z.J.J.J.J.J.J.J.J.J.J.J.J.J.J.J.J.J.J.J.J.J.J.J.J.J.J.J.J.J.J.J.J.J.J.J.J.J.J.J.J.J.J.J.J.J.J.J.J.J.J.J.J.J.J.F.O.D c K.",
"K.O.O.#.J.J.J.J.J.J.J.J.J.J.J.J.J.J.J.J.J.J.J.J.J.J.J.J.J.J.H.B.B.H.J.J.J.J.J.J.J.J.J.J.J.J.J.J.J.J.J.J.J.J.J.J.J.J.J.J.#.O.O.K.",
"K.O.D 3.J.J.J.J.J.J.J.J.J.J.' , > > , e m 2.J.J.J.J.J.J.J.7.u + O = M V.J.J.J.J.J.B.w , > , < p V ;.D.J.J.J.J.J.J.J.J.J.3.D O.K.",
"K.O.O.j.J.J.J.J.J.J.J.J.J.J.R   # ; ; *     Q J.J.J.J.J.s.+   w s w . [ J.J.J.J.J.B.O   ; ; ; #     : 2.J.J.J.J.J.J.J.J.j.O.O.K.",
"3 O.O.V.J.J.J.J.J.J.J.J.J.J.R   G b.b.v.-..   y.J.J.J.J.Y   f i.H.G.a.5.J.J.J.J.J.B.O X 0.b.b.v.u.B     2.J.J.J.J.J.J.J.V.O.O.3 ",
"v O.O.H.J.J.J.J.J.J.J.J.J.J.R   k J.J.J.J.h   U J.J.J.J.C   T J.J.J.J.J.J.J.J.J.J.B.O X i.J.J.J.J.J.=.  % A.J.J.J.J.J.J.J.O.O.c ",
"c O.O.J.J.J.J.J.J.J.J.J.J.J.R   k J.J.J.J.l   J J.J.J.J.1.  p J.J.J.J.J.J.J.J.J.J.B.O X i.J.J.J.J.J.J.1   | J.J.J.J.J.J.J.O.O.v ",
"v O.O.J.J.J.J.J.J.J.J.J.J.J.R   k J.J.J.M.=   T J.J.J.J.B.=   S J.J.J.J.J.J.J.J.J.B.O X i.J.J.J.J.J.J.V   x J.J.J.J.J.J.J.O.O.v ",
"v O.O.J.J.J.J.J.J.J.J.J.J.J.R   y &.&.( q   w t.J.J.J.B.g   #   Q J.J.J.J.6.} F.J.B.O X i.J.J.J.J.J.J.W   i H.J.J.J.J.J.J.O.O.b ",
"v O.O.J.J.J.J.J.J.J.J.J.J.J.R             y 9.H.J.J.J.P   s q.6   Q J.J.J.r   q.J.B.O X i.J.J.J.J.J.J.E   i G.J.J.J.J.J.J.O.O.b ",
"v O.O.J.J.J.J.J.J.J.J.J.J.J.R   y ~ ~ P $   1.J.J.J.B.& O o.J.Z.6   ) J.N.+ > p.J.B.O X i.J.J.J.J.J.J.B   d H.J.J.J.J.J.J.O.O.v ",
"c O.O.J.J.J.J.J.J.J.J.J.J.J.R   k J.J.J.l.. @ m.J.J.d.  > b.J.J.Z.5   @.]   H D.J.B.O X i.J.J.J.J.J.D.q   K J.J.J.J.J.J.J.O.O.v ",
"v O.D F.J.J.J.J.J.J.J.J.J.J.R   k J.J.J.J.A   B J.J.M.  - n.J.J.J.C.4   + = 9.J.J.B.O X i.J.J.J.J.J...  X o.J.J.J.J.J.J.F.O.D v ",
"3 O.O.x.J.J.J.J.J.J.J.J.J.J.R   G J.J.J.J.m.X X c.J.J.a   ` J.J.J.J.8..   k D.J.J.B.O O i.J.J.J.A.| #   G n.J.J.J.J.J.J.x.O.O.3 ",
"K.O.O.h.J.J.J.J.J.J.J.J.J.J.R   k J.J.J.J.J.S   B J.J.k.o   m %.&.I #   +   *.J.J.A.O   z N N g =     d r.J.J.J.J.J.J.J.h.O.O.K.",
"K.O.O.>.J.J.J.J.J.J.J.J.J.J.W   k J.J.J.J.J.m.o X c.J.J.k.2         q L e.%   ,.J.A.@         O ; s  .f.J.J.J.J.J.J.J.J.<.O.O.K.",
"K.O.O.+.J.J.J.J.J.J.J.J.J.J.J.i.t.J.J.J.J.J.J.B.t.g.J.J.J.G.7.{ / X.p.H.J.S.t.t.H.J.N.t.t.t.t.i.f.B.J.J.J.J.J.J.J.J.J.J.+.O.O.K.",
"K.c O.O.V.J.J.J.J.J.J.J.J.J.J.J.J.J.J.J.J.J.J.J.J.J.J.J.J.J.J.J.J.J.J.J.J.J.J.J.J.J.J.J.J.J.J.J.J.J.J.J.J.J.J.J.J.J.J.V.O.O.c K.",
"K.K.O.O.4.J.J.J.J.J.J.J.J.J.J.J.J.J.J.J.J.J.J.J.J.J.J.J.J.J.J.J.J.J.J.J.J.J.J.J.J.J.J.J.J.J.J.J.J.J.J.J.J.J.J.J.J.J.J.4.O.O.K.K.",
"K.K.O.O.O.J.J.J.J.J.J.J.J.J.J.J.J.J.J.J.J.J.J.J.J.J.J.J.J.J.J.J.J.J.J.J.J.J.J.J.J.J.J.J.J.J.J.J.J.J.J.J.J.J.J.J.J.J.J.O.O.O.K.K.",
"K.K.c D O.j.J.J.J.J.J.J.J.J.J.J.J.J.J.J.J.J.J.J.J.J.J.J.J.J.J.J.J.J.J.J.J.J.J.J.J.J.J.J.J.J.J.J.J.J.J.J.J.J.J.J.J.J.j.O.O.c K.K.",
"K.K.K.O.O.$.J.J.J.J.J.J.J.J.J.J.J.J.J.J.J.J.J.J.J.J.J.J.J.J.J.J.J.J.J.J.J.J.J.J.J.J.J.J.J.J.J.J.J.J.J.J.J.J.J.J.J.J.#.O.O.K.K.K.",
"K.K.K.Z O.O.j.J.J.J.J.J.J.J.J.J.J.J.J.J.J.J.J.J.J.J.J.J.J.J.J.J.J.J.J.J.J.J.J.J.J.J.J.J.J.J.J.J.J.J.J.J.J.J.J.J.J.z.O.O.Z K.K.K.",
"K.K.K.K.O.D +.F.J.J.J.J.J.J.J.J.J.J.J.J.J.J.J.J.J.J.J.J.J.J.J.J.J.J.J.J.J.J.J.J.J.J.J.J.J.J.J.J.J.J.J.J.J.J.J.J.F.+.O.O.K.K.K.K.",
"K.K.K.K.n O.O.4.J.J.J.J.J.J.J.J.J.J.J.J.J.J.J.J.J.J.J.J.J.J.J.J.J.J.J.J.J.J.J.J.J.J.J.J.J.J.J.J.J.J.J.J.J.J.J.J.4.D O.n K.K.K.K.",
"K.K.K.K.K.O.O.O.x.J.J.J.J.J.J.J.J.J.J.J.J.J.J.J.J.J.J.J.J.J.J.J.J.J.J.J.J.J.J.J.J.J.J.J.J.J.J.J.J.J.J.J.J.J.J.V.D O.O.K.K.K.K.K.",
"K.K.K.K.K.9 O.O.O.F.J.J.J.J.J.J.J.J.J.J.J.J.J.J.J.J.J.J.J.J.J.J.J.J.J.J.J.J.J.J.J.J.J.J.J.J.J.J.J.J.J.J.J.J.F.O.O.O.9 K.K.K.K.K.",
"K.K.K.K.K.K.Z O.O.$.J.J.J.J.J.J.J.J.J.J.J.J.J.J.J.J.J.J.J.J.J.J.J.J.J.J.J.J.J.J.J.J.J.J.J.J.J.J.J.J.J.J.J.J.$.O.O.Z K.K.K.K.K.K.",
"K.K.K.K.K.K.K.O.O.O.>.J.J.J.J.J.J.J.J.J.J.J.J.J.J.J.J.J.J.J.J.J.J.J.J.J.J.J.J.J.J.J.J.J.J.J.J.J.J.J.J.J.J.>.O.O.O.K.K.K.K.K.K.K.",
"K.K.K.K.K.K.K.K.O.O.O.>.H.J.J.J.J.J.J.J.J.J.J.J.J.J.J.J.J.J.J.J.J.J.J.J.J.J.J.J.J.J.J.J.J.J.J.J.J.J.J.H.<.O.O.O.K.K.K.K.K.K.K.K.",
"K.K.K.K.K.K.K.K.3 O.O.O.$.F.J.J.J.J.J.J.J.J.J.J.J.J.J.J.J.J.J.J.J.J.J.J.J.J.J.J.J.J.J.J.J.J.J.J.J.J.F.$.O.O.O.3 K.K.K.K.K.K.K.K.",
"K.K.K.K.K.K.K.K.K.8 O.O.O.#.Z.J.J.J.J.J.J.J.J.J.J.J.J.J.J.J.J.J.J.J.J.J.J.J.J.J.J.J.J.J.J.J.J.J.J.Z.#.O.O.O.8 K.K.K.K.K.K.K.K.K.",
"K.K.K.K.K.K.K.K.K.K.3 O.O.O.O.h.J.J.J.J.J.J.J.J.J.J.J.J.J.J.J.J.J.J.J.J.J.J.J.J.J.J.J.J.J.J.J.J.h.O.O.O.O.3 K.K.K.K.K.K.K.K.K.K.",
"K.K.K.K.K.K.K.K.K.K.K.K.O.O.O.O.$.V.J.J.J.J.J.J.J.J.J.J.J.J.J.J.J.J.J.J.J.J.J.J.J.J.J.J.J.J.V.$.O.O.O.O.K.K.K.K.K.K.K.K.K.K.K.K.",
"K.K.K.K.K.K.K.K.K.K.K.K.K.Z O.O.O.D <.Z.J.J.J.J.J.J.J.J.J.J.J.J.J.J.J.J.J.J.J.J.J.J.J.J.Z.<.O.O.O.O.Z K.K.K.K.K.K.K.K.K.K.K.K.K.",
"K.K.K.K.K.K.K.K.K.K.K.K.K.K.9 O.O.O.O.O.>.z.J.J.J.J.J.J.J.J.J.J.J.J.J.J.J.J.J.J.J.J.z.>.O.O.O.O.O.9 K.K.K.K.K.K.K.K.K.K.K.K.K.K.",
"K.K.K.K.K.K.K.K.K.K.K.K.K.K.K.K.n O.O.O.D O.+.<.z.F.J.J.J.J.J.J.J.J.J.J.J.J.F.z.3.O.O.O.O.O.O.n K.K.K.K.K.K.K.K.K.K.K.K.K.K.K.K.",
"K.K.K.K.K.K.K.K.K.K.K.K.K.K.K.K.K.K.Z O.O.O.O.O.D O.#.$.4.4.4.4.4.h.4.4.$.+.O.O.O.O.O.O.O.Z K.K.K.K.K.K.K.K.K.K.K.K.K.K.K.K.K.K.",
"K.K.K.K.K.K.K.K.K.K.K.K.K.K.K.K.K.K.K.K.c O.O.O.O.O.O.O.O.O.O.O.D O.O.O.O.O.O.O.O.O.O.c K.K.K.K.K.K.K.K.K.K.K.K.K.K.K.K.K.K.K.K.",
"K.K.K.K.K.K.K.K.K.K.K.K.K.K.K.K.K.K.K.K.K.K.K.c O.O.O.O.O.O.O.O.O.O.O.O.O.O.O.O.c K.K.K.K.K.K.K.K.K.K.K.K.K.K.K.K.K.K.K.K.K.K.K.",
"K.K.K.K.K.K.K.K.K.K.K.K.K.K.K.K.K.K.K.K.K.K.K.K.K.K.K.3 c v b b b b v 9 3 K.K.K.K.K.K.K.K.K.K.K.K.K.K.K.K.K.K.K.K.K.K.K.K.K.K.K."
};
