/* XPM */
static char *bitcoin32[] = {
/* columns rows colors chars-per-pixel */
"32 32 184 2 ",
"   c #0D1605",
".  c #111A07",
"X  c #131D09",
"o  c #142108",
"O  c #1E2D0F",
"+  c #1D2714",
"@  c #1C2910",
"#  c #1E2913",
"$  c #22360E",
"%  c #202917",
"&  c #22291C",
"*  c #232B1C",
"=  c #24291F",
"-  c #273A15",
";  c #27351A",
":  c #2A3A1A",
">  c gray13",
",  c #222222",
"<  c #232323",
"1  c gray14",
"2  c #252525",
"3  c #2B2F27",
"4  c #2D3723",
"5  c #313928",
"6  c #33382F",
"7  c #343730",
"8  c #343434",
"9  c #353535",
"0  c gray21",
"q  c #2C4315",
"w  c #2D4219",
"e  c #32491C",
"r  c #33481E",
"t  c #344128",
"y  c #445533",
"u  c #495E35",
"i  c #4B5F37",
"p  c gray25",
"a  c gray26",
"s  c #434343",
"d  c #5F5F5F",
"f  c #566B42",
"g  c #5D6655",
"h  c #606D53",
"j  c #637550",
"k  c #68755C",
"l  c #6C7E5A",
"z  c #6C7B5D",
"x  c #606060",
"c  c gray38",
"v  c #626262",
"b  c gray39",
"n  c #646464",
"m  c #656565",
"M  c #676767",
"N  c #696E63",
"B  c #686868",
"V  c gray49",
"C  c #7E7E7E",
"Z  c gray50",
"A  c #7A8075",
"S  c #7F8975",
"D  c #84996E",
"F  c #828D78",
"G  c #879777",
"H  c #889F71",
"J  c #8F9F7F",
"K  c #8EB16C",
"L  c #91A67C",
"P  c #808080",
"I  c #818181",
"U  c gray51",
"Y  c #848484",
"T  c gray53",
"R  c #8B8B8B",
"E  c #8C9384",
"W  c #919E84",
"Q  c gray58",
"!  c gray59",
"~  c #989898",
"^  c gray60",
"/  c #9A9A9A",
"(  c #9B9B9B",
")  c gray61",
"_  c #94A683",
"`  c #9BAF87",
"'  c #9BB086",
"]  c #9AA492",
"[  c #A6BD8F",
"{  c #A5B793",
"}  c #A2A2A2",
"|  c gray64",
" . c gray65",
".. c #A7A7A7",
"X. c gray67",
"o. c #AEAEAE",
"O. c #AFAFAF",
"+. c #ACB6A2",
"@. c #B1B1B1",
"#. c gray70",
"$. c #B4B4B4",
"%. c gray71",
"&. c #B7B7B7",
"*. c gray72",
"=. c #B9B9B9",
"-. c #BCBCBC",
";. c gray74",
":. c gray",
">. c #AAC193",
",. c #AAC095",
"<. c #ABC394",
"1. c #B8C6AC",
"2. c #BDC6B5",
"3. c #BECCB0",
"4. c #C4CABE",
"5. c #C3D4B2",
"6. c #C7D4BB",
"7. c #C8D2BE",
"8. c #C9D3BF",
"9. c #CAD8BB",
"0. c #CAE0B5",
"q. c #D0E8B9",
"w. c #C4C6C2",
"e. c gray77",
"r. c #C6C6C6",
"t. c gray78",
"y. c #C8C8C8",
"u. c gray79",
"i. c #CACACA",
"p. c #CCCECA",
"a. c gray80",
"s. c #CDCDCD",
"d. c gray81",
"f. c #CAD4C0",
"g. c #CBD3C4",
"h. c #D1DBC7",
"j. c LightGray",
"k. c gray83",
"l. c gray85",
"z. c #DADADA",
"x. c #D2E3C1",
"c. c #DBF0C7",
"v. c #DDE6D5",
"b. c #DDE5D6",
"n. c #E1E3DF",
"m. c #E3EADB",
"M. c #E7F7D7",
"N. c #E8F7DA",
"B. c #EAF8DD",
"V. c #E2E2E2",
"C. c #E4E6E2",
"Z. c #E4E4E4",
"A. c #E7EAE4",
"S. c #E7EAE5",
"D. c #E8EBE6",
"F. c #E8ECE4",
"G. c #E9EAE8",
"H. c #EAEAEA",
"J. c gray92",
"K. c #EEEEEE",
"L. c #EFEFEF",
"P. c #ECF2E7",
"I. c #EEF3E9",
"U. c #EEF0EC",
"Y. c #F0FBE6",
"T. c #F1F2EF",
"R. c #F1F7EC",
"E. c #F2F7EE",
"W. c gray94",
"Q. c #F1F2F0",
"!. c #F4F6F1",
"~. c #F4F4F4",
"^. c gray96",
"/. c #F8FCF5",
"(. c #F9F9F9",
"). c #FCFDFB",
"_. c #FCFEFB",
"`. c gray99",
"'. c #FDFDFD",
"]. c #FDFEFD",
"[. c #FEFEFD",
"{. c #FEFEFE",
"}. c white",
"|. c None",
/* pixels */
"|.|.|.|.|.|.|.|.|.|.|.> s c m m c s 1 |.|.|.|.|.|.|.|.|.|.|.|.|.",
"|.|.|.|.|.|.|.|.|.d U R ..=.:.:.=...R U c |.|.|.|.|.|.|.|.|.|.|.",
"|.|.|.|.|.|.|.c Y @.V.{.{.{.{.{.{.{.{.V.@.Y m |.|.|.|.|.|.|.|.|.",
"|.|.|.|.|.> V ..L.{.{.{.{.{.{.{.{.{.{.{.{.L...V 1 |.|.|.|.|.|.|.",
"|.|.|.|.8 U a.{.{.{.{.{.{.{.{.{.{.{.{.{.{.{.{.a.U 8 |.|.|.|.|.|.",
"|.|.|.> Y l.{.{.{.{.{.{.{.{.{.{.{.{.{.{.{.{.{.{.l.Y 1 |.|.|.|.|.",
"|.|.|.V j.{.{.{.{.{.{.{.{.{.{.{.{.{.{.{.{.{.{.{.{.j.V |.|.|.|.|.",
"|.|.c o.{.{.{.{.{.{.{.{.{.{.{.{.{.{.{.{.{.{.{.{.{.{.@.c |.|.|.|.",
"|.|.Y ^.{.{.{.{.{.{.{.{.{.{.{.{.{.{.{.{.{.{.{.{.{.{.^.T |.|.|.|.",
"|.c :.{.{.{.{.{.{.{.{.{.{.{.{.{.{.{.{.{.{.{.{.{.{.{.{.:.n |.|.|.",
"|.U L.{.{.{.{.{.{.{.{.{.{.{.{.{.{.{.{.{.{.{.{.{.{.{.{.Q.U |.|.|.",
"> ^ {.{.{.{.E.8.f.b.{.{.{.{.6.2.!.{.{.P.f.f.b.{.{.{.{.{.^ 1 |.|.",
"s %.{.{.{.{.7.X f t N {.{.G r l D {.{.+.O f y 4 p.{.{.{.%.s |.|.",
"d y.{.{.{.{.8.w {.E.  B.{.g { {.{.{.{.+.i {.{.4.* /.{.{.y.b |.|.",
"m y.{.{.{.{.8.- h._ $ Y.{.z = n.{.m.U.+.i {.{.{.+ x.{.{.a.B |.|.",
"m y.{.{.{.{.8.. i % L {.3.e 1.7 C.h [ +.i {.{.{.+ 0.{.{.a.B |.|.",
"c e.{.{.{.{.8.w {.A.& I.] j {.w.7 q N.+.i {.{.9.o M.{.{.y.c |.|.",
"s %.{.{.{.{.8.w {.{.V S S.3 E W : 4 G.+.; F k @ K {.{.{.%.s |.|.",
"> ! {.{.{.{.Q.<.{.{.Q.<.{.A._ H q.g.5.F.` ' <.c.{.{.{.{.! 1 |.|.",
"|.U J.{.{.{.{.{.{.{.{.{.{.{.{.{.{.{.{.{.{.{.{.{.{.{.{.L.U |.|.|.",
"|.c %.{.{.{.{.{.{.{.{.{.{.{.{.{.{.{.{.{.{.{.{.{.{.{.{.=.c |.|.|.",
"|.|.Y L.{.{.{.{.{.{.{.{.{.{.{.{.{.{.{.{.{.{.{.{.{.{.L.Y |.|.|.|.",
"|.|.c ..{.{.{.{.{.{.{.{.{.{.{.{.{.{.{.{.{.{.{.{.{.{...c |.|.|.|.",
"|.|.|.V e.{.{.{.{.{.{.{.{.{.{.{.{.{.{.{.{.{.{.{.{.e.U |.|.|.|.|.",
"|.|.|.> U a.{.{.{.{.{.{.{.{.{.{.{.{.{.{.{.{.{.{.j.U 1 |.|.|.|.|.",
"|.|.|.|.8 U :.{.{.{.{.{.{.{.{.{.{.{.{.{.{.{.{.:.V 8 |.|.|.|.|.|.",
"|.|.|.|.|.1 V ^ V.{.{.{.{.{.{.{.{.{.{.{.{.Z.) V 1 |.|.|.|.|.|.|.",
"|.|.|.|.|.|.|.c U | k.(.{.{.{.{.{.{.(.k.| U m |.|.|.|.|.|.|.|.|.",
"|.|.|.|.|.|.|.|.|.c U U ^ X.o.@.o.) Y U m |.|.|.|.|.|.|.|.|.|.|.",
"|.|.|.|.|.|.|.|.|.|.|.1 s c B B d 0 1 |.|.|.|.|.|.|.|.|.|.|.|.|.",
"|.|.|.|.|.|.|.|.|.|.|.|.|.|.|.|.|.|.|.|.|.|.|.|.|.|.|.|.|.|.|.|.",
"|.|.|.|.|.|.|.|.|.|.|.|.|.|.|.|.|.|.|.|.|.|.|.|.|.|.|.|.|.|.|.|."
};
