/* XPM */
static char *bitcoin16[] = {
/* columns rows colors chars-per-pixel */
"16 16 85 1 ",
"  c #2D3B20",
". c gray24",
"X c #3E3E3E",
"o c gray25",
"O c #414141",
"+ c #434343",
"@ c #555555",
"# c #565656",
"$ c gray34",
"% c #585858",
"& c gray35",
"* c #5A5A5A",
"= c #6F7C61",
"- c #727F66",
"; c gray46",
": c gray47",
"> c #7C7C7C",
", c gray49",
"< c gray50",
"1 c #748266",
"2 c #758467",
"3 c #748168",
"4 c #7B8B6C",
"5 c #7C8277",
"6 c #7D8872",
"7 c #838A7C",
"8 c #848D7C",
"9 c #818181",
"0 c gray51",
"q c #848484",
"w c gray52",
"e c gray54",
"r c gray56",
"t c #8E9686",
"y c #909F82",
"u c #949F8A",
"i c gray59",
"p c #989F91",
"a c gray60",
"s c #96A489",
"d c #9EA895",
"f c #A4AE9A",
"g c #A1B192",
"h c #A9B59C",
"j c #B8BEB2",
"k c #B9BDB6",
"l c #BBC7B0",
"z c #C5CFBB",
"x c #C1C1C1",
"c c gray76",
"v c #C9CFC4",
"b c #C8C8C8",
"n c gray79",
"m c #CACACA",
"M c #CBCBCB",
"N c #CECECE",
"B c #CBD4C2",
"V c #CDD7C3",
"C c #D6DBD1",
"Z c #E1EBD6",
"A c #E0E5DA",
"S c #E0E5DB",
"D c #E3E8DE",
"F c #E6EEDF",
"G c #E6EDE0",
"H c #E6ECE1",
"J c #E8EDE4",
"K c #EAEFE5",
"L c #EEEEEE",
"P c #EEF1EA",
"I c gray94",
"U c gray95",
"Y c #F3F3F3",
"T c gray97",
"R c #F5F8F3",
"E c #F9FAF7",
"W c #F9F9F8",
"Q c #F9F9F9",
"! c #FAFBF9",
"~ c gray98",
"^ c #FBFBFB",
"/ c #FCFCFB",
"( c #FEFEFE",
") c white",
"_ c None",
/* pixels */
"_____X<r>X______",
"___$bT)))Tb*____",
"__<U)))))))U0___",
"_*U)))))))))U*__",
"_N)))))))))))N__",
"O^)PH))S^^DR)^O_",
"0))3dpjyAC=tk)w_",
"i))-1hs5vlf)2)a_",
"0))4^78j B6ug)0_",
"X^)F)HEzFKVZ)^O_",
"_b)))))))))))b__",
"_*L)))))))))U*__",
"__<L)))))))L>___",
"___@xU)))Ux$____",
"_____X>e;X______",
"________________"
};
